<mxfile host="app.diagrams.net" modified="2021-04-20T13:47:08.031Z" agent="5.0 (Windows NT 10.0; Win64; x64) AppleWebKit/537.36 (KHTML, like Gecko) Chrome/89.0.4389.128 Safari/537.36" etag="iT9GkUWIyWb78p06z2Vf" version="14.6.1" type="github">
  <diagram id="R2lEEEUBdFMjLlhIrx00" name="Page-1">
    <mxGraphModel dx="1038" dy="523" grid="1" gridSize="10" guides="1" tooltips="1" connect="1" arrows="1" fold="1" page="1" pageScale="1" pageWidth="850" pageHeight="1100" math="0" shadow="0" extFonts="Permanent Marker^https://fonts.googleapis.com/css?family=Permanent+Marker">
      <root>
        <mxCell id="0" />
        <mxCell id="1" parent="0" />
        <mxCell id="K-eYaZ-kSqXCWAp16faL-1" value="Band" style="whiteSpace=wrap;html=1;align=center;" vertex="1" parent="1">
          <mxGeometry x="530" y="340" width="100" height="40" as="geometry" />
        </mxCell>
        <mxCell id="K-eYaZ-kSqXCWAp16faL-2" value="Singer" style="whiteSpace=wrap;html=1;align=center;" vertex="1" parent="1">
          <mxGeometry x="210" y="340" width="100" height="40" as="geometry" />
        </mxCell>
        <mxCell id="K-eYaZ-kSqXCWAp16faL-3" value="Person" style="whiteSpace=wrap;html=1;align=center;" vertex="1" parent="1">
          <mxGeometry x="370" y="200" width="100" height="40" as="geometry" />
        </mxCell>
        <mxCell id="K-eYaZ-kSqXCWAp16faL-4" value="Festival" style="whiteSpace=wrap;html=1;align=center;" vertex="1" parent="1">
          <mxGeometry x="375" y="440" width="100" height="40" as="geometry" />
        </mxCell>
        <mxCell id="K-eYaZ-kSqXCWAp16faL-5" value="Stage" style="whiteSpace=wrap;html=1;align=center;" vertex="1" parent="1">
          <mxGeometry x="210" y="560" width="100" height="40" as="geometry" />
        </mxCell>
        <mxCell id="K-eYaZ-kSqXCWAp16faL-6" value="Tiket" style="whiteSpace=wrap;html=1;align=center;" vertex="1" parent="1">
          <mxGeometry x="375" y="680" width="100" height="40" as="geometry" />
        </mxCell>
        <mxCell id="K-eYaZ-kSqXCWAp16faL-7" value="PersonID" style="ellipse;whiteSpace=wrap;html=1;align=center;fontStyle=4;" vertex="1" parent="1">
          <mxGeometry x="260" y="120" width="100" height="40" as="geometry" />
        </mxCell>
        <mxCell id="K-eYaZ-kSqXCWAp16faL-8" value="Person_Name" style="ellipse;whiteSpace=wrap;html=1;align=center;" vertex="1" parent="1">
          <mxGeometry x="375" y="90" width="100" height="40" as="geometry" />
        </mxCell>
        <mxCell id="K-eYaZ-kSqXCWAp16faL-9" value="SingerID" style="ellipse;whiteSpace=wrap;html=1;align=center;fontStyle=4;" vertex="1" parent="1">
          <mxGeometry x="30" y="240" width="100" height="40" as="geometry" />
        </mxCell>
        <mxCell id="K-eYaZ-kSqXCWAp16faL-10" value="Band_ID" style="ellipse;whiteSpace=wrap;html=1;align=center;" vertex="1" parent="1">
          <mxGeometry x="640" y="210" width="100" height="40" as="geometry" />
        </mxCell>
        <mxCell id="K-eYaZ-kSqXCWAp16faL-11" value="Genre" style="ellipse;whiteSpace=wrap;html=1;align=center;" vertex="1" parent="1">
          <mxGeometry x="40" y="500" width="100" height="40" as="geometry" />
        </mxCell>
        <mxCell id="K-eYaZ-kSqXCWAp16faL-12" value="StageID" style="ellipse;whiteSpace=wrap;html=1;align=center;fontStyle=4;" vertex="1" parent="1">
          <mxGeometry x="100" y="460" width="100" height="40" as="geometry" />
        </mxCell>
        <mxCell id="K-eYaZ-kSqXCWAp16faL-13" value="TiketID" style="ellipse;whiteSpace=wrap;html=1;align=center;fontStyle=4;" vertex="1" parent="1">
          <mxGeometry x="270" y="810" width="100" height="40" as="geometry" />
        </mxCell>
        <mxCell id="K-eYaZ-kSqXCWAp16faL-14" value="Price" style="ellipse;whiteSpace=wrap;html=1;align=center;" vertex="1" parent="1">
          <mxGeometry x="370" y="830" width="100" height="40" as="geometry" />
        </mxCell>
        <mxCell id="K-eYaZ-kSqXCWAp16faL-15" value="" style="endArrow=none;html=1;rounded=0;exitX=1;exitY=0.25;exitDx=0;exitDy=0;" edge="1" parent="1" source="K-eYaZ-kSqXCWAp16faL-1">
          <mxGeometry relative="1" as="geometry">
            <mxPoint x="520" y="250" as="sourcePoint" />
            <mxPoint x="680" y="250" as="targetPoint" />
          </mxGeometry>
        </mxCell>
        <mxCell id="K-eYaZ-kSqXCWAp16faL-16" value="" style="endArrow=none;html=1;rounded=0;exitX=1;exitY=0.5;exitDx=0;exitDy=0;entryX=0;entryY=0.25;entryDx=0;entryDy=0;" edge="1" parent="1" source="K-eYaZ-kSqXCWAp16faL-9" target="K-eYaZ-kSqXCWAp16faL-2">
          <mxGeometry relative="1" as="geometry">
            <mxPoint x="150" y="250" as="sourcePoint" />
            <mxPoint x="170" y="330" as="targetPoint" />
            <Array as="points" />
          </mxGeometry>
        </mxCell>
        <mxCell id="K-eYaZ-kSqXCWAp16faL-17" value="" style="endArrow=none;html=1;rounded=0;exitX=0.5;exitY=0;exitDx=0;exitDy=0;entryX=0.5;entryY=1;entryDx=0;entryDy=0;" edge="1" parent="1" source="K-eYaZ-kSqXCWAp16faL-3" target="K-eYaZ-kSqXCWAp16faL-8">
          <mxGeometry relative="1" as="geometry">
            <mxPoint x="345" y="160" as="sourcePoint" />
            <mxPoint x="505" y="160" as="targetPoint" />
          </mxGeometry>
        </mxCell>
        <mxCell id="K-eYaZ-kSqXCWAp16faL-18" value="" style="endArrow=none;html=1;rounded=0;entryX=0.5;entryY=0;entryDx=0;entryDy=0;" edge="1" parent="1" target="K-eYaZ-kSqXCWAp16faL-3">
          <mxGeometry relative="1" as="geometry">
            <mxPoint x="315" y="160" as="sourcePoint" />
            <mxPoint x="475" y="160" as="targetPoint" />
          </mxGeometry>
        </mxCell>
        <mxCell id="K-eYaZ-kSqXCWAp16faL-19" value="" style="endArrow=none;html=1;rounded=0;exitX=0.5;exitY=1;exitDx=0;exitDy=0;entryX=0;entryY=0.25;entryDx=0;entryDy=0;" edge="1" parent="1" source="K-eYaZ-kSqXCWAp16faL-11" target="K-eYaZ-kSqXCWAp16faL-5">
          <mxGeometry relative="1" as="geometry">
            <mxPoint x="250" y="579.5" as="sourcePoint" />
            <mxPoint x="310" y="600" as="targetPoint" />
          </mxGeometry>
        </mxCell>
        <mxCell id="K-eYaZ-kSqXCWAp16faL-20" value="" style="endArrow=none;html=1;rounded=0;entryX=0;entryY=0.25;entryDx=0;entryDy=0;exitX=0.5;exitY=1;exitDx=0;exitDy=0;" edge="1" parent="1" source="K-eYaZ-kSqXCWAp16faL-12" target="K-eYaZ-kSqXCWAp16faL-5">
          <mxGeometry relative="1" as="geometry">
            <mxPoint x="250" y="509.5" as="sourcePoint" />
            <mxPoint x="310" y="470" as="targetPoint" />
          </mxGeometry>
        </mxCell>
        <mxCell id="K-eYaZ-kSqXCWAp16faL-21" value="" style="endArrow=none;html=1;rounded=0;entryX=0.5;entryY=1;entryDx=0;entryDy=0;exitX=0.5;exitY=0;exitDx=0;exitDy=0;" edge="1" parent="1" source="K-eYaZ-kSqXCWAp16faL-13" target="K-eYaZ-kSqXCWAp16faL-6">
          <mxGeometry relative="1" as="geometry">
            <mxPoint x="320" y="820" as="sourcePoint" />
            <mxPoint x="480" y="820" as="targetPoint" />
          </mxGeometry>
        </mxCell>
        <mxCell id="K-eYaZ-kSqXCWAp16faL-22" value="" style="endArrow=none;html=1;rounded=0;entryX=0.5;entryY=1;entryDx=0;entryDy=0;exitX=0.5;exitY=0;exitDx=0;exitDy=0;" edge="1" parent="1" source="K-eYaZ-kSqXCWAp16faL-14" target="K-eYaZ-kSqXCWAp16faL-6">
          <mxGeometry relative="1" as="geometry">
            <mxPoint x="425" y="880" as="sourcePoint" />
            <mxPoint x="585" y="880" as="targetPoint" />
          </mxGeometry>
        </mxCell>
        <mxCell id="K-eYaZ-kSqXCWAp16faL-23" value="Nickname" style="ellipse;whiteSpace=wrap;html=1;align=center;" vertex="1" parent="1">
          <mxGeometry x="10" y="290" width="100" height="40" as="geometry" />
        </mxCell>
        <mxCell id="K-eYaZ-kSqXCWAp16faL-24" value="" style="endArrow=none;html=1;rounded=0;exitX=1;exitY=0.5;exitDx=0;exitDy=0;entryX=0;entryY=0.25;entryDx=0;entryDy=0;" edge="1" parent="1" source="K-eYaZ-kSqXCWAp16faL-23" target="K-eYaZ-kSqXCWAp16faL-2">
          <mxGeometry relative="1" as="geometry">
            <mxPoint x="10" y="339.5" as="sourcePoint" />
            <mxPoint x="170" y="339.5" as="targetPoint" />
          </mxGeometry>
        </mxCell>
        <mxCell id="K-eYaZ-kSqXCWAp16faL-25" value="&lt;span style=&quot;border-bottom: 1px dotted&quot;&gt;PersonID&lt;/span&gt;" style="ellipse;whiteSpace=wrap;html=1;align=center;" vertex="1" parent="1">
          <mxGeometry x="10" y="340" width="100" height="40" as="geometry" />
        </mxCell>
        <mxCell id="K-eYaZ-kSqXCWAp16faL-26" value="" style="endArrow=none;html=1;rounded=0;exitX=1;exitY=0.5;exitDx=0;exitDy=0;entryX=0;entryY=0.25;entryDx=0;entryDy=0;" edge="1" parent="1" source="K-eYaZ-kSqXCWAp16faL-25" target="K-eYaZ-kSqXCWAp16faL-2">
          <mxGeometry relative="1" as="geometry">
            <mxPoint x="120" y="370" as="sourcePoint" />
            <mxPoint x="170" y="330" as="targetPoint" />
          </mxGeometry>
        </mxCell>
        <mxCell id="K-eYaZ-kSqXCWAp16faL-27" value="Band_Name" style="ellipse;whiteSpace=wrap;html=1;align=center;" vertex="1" parent="1">
          <mxGeometry x="740" y="260" width="100" height="40" as="geometry" />
        </mxCell>
        <mxCell id="K-eYaZ-kSqXCWAp16faL-28" value="" style="endArrow=none;html=1;rounded=0;entryX=0.5;entryY=1;entryDx=0;entryDy=0;exitX=1;exitY=0.25;exitDx=0;exitDy=0;" edge="1" parent="1" source="K-eYaZ-kSqXCWAp16faL-1" target="K-eYaZ-kSqXCWAp16faL-27">
          <mxGeometry relative="1" as="geometry">
            <mxPoint x="660" y="330" as="sourcePoint" />
            <mxPoint x="820" y="330" as="targetPoint" />
          </mxGeometry>
        </mxCell>
        <mxCell id="K-eYaZ-kSqXCWAp16faL-29" value="&lt;span style=&quot;border-bottom: 1px dotted&quot;&gt;BandID&lt;/span&gt;" style="ellipse;whiteSpace=wrap;html=1;align=center;" vertex="1" parent="1">
          <mxGeometry x="510" y="100" width="100" height="40" as="geometry" />
        </mxCell>
        <mxCell id="K-eYaZ-kSqXCWAp16faL-30" value="" style="endArrow=none;html=1;rounded=0;entryX=0.5;entryY=1;entryDx=0;entryDy=0;" edge="1" parent="1" target="K-eYaZ-kSqXCWAp16faL-29">
          <mxGeometry relative="1" as="geometry">
            <mxPoint x="420" y="200" as="sourcePoint" />
            <mxPoint x="610" y="170" as="targetPoint" />
          </mxGeometry>
        </mxCell>
        <mxCell id="K-eYaZ-kSqXCWAp16faL-31" value="VIP_Tikets" style="ellipse;whiteSpace=wrap;html=1;align=center;" vertex="1" parent="1">
          <mxGeometry x="10" y="550" width="100" height="40" as="geometry" />
        </mxCell>
        <mxCell id="K-eYaZ-kSqXCWAp16faL-32" value="Gold_Tikets" style="ellipse;whiteSpace=wrap;html=1;align=center;" vertex="1" parent="1">
          <mxGeometry x="10" y="600" width="100" height="40" as="geometry" />
        </mxCell>
        <mxCell id="K-eYaZ-kSqXCWAp16faL-33" value="Silver_Tikets" style="ellipse;whiteSpace=wrap;html=1;align=center;" vertex="1" parent="1">
          <mxGeometry x="90" y="630" width="100" height="40" as="geometry" />
        </mxCell>
        <mxCell id="K-eYaZ-kSqXCWAp16faL-36" value="" style="endArrow=none;html=1;rounded=0;entryX=0;entryY=0.25;entryDx=0;entryDy=0;" edge="1" parent="1" target="K-eYaZ-kSqXCWAp16faL-5">
          <mxGeometry relative="1" as="geometry">
            <mxPoint x="110" y="569.5" as="sourcePoint" />
            <mxPoint x="270" y="569.5" as="targetPoint" />
          </mxGeometry>
        </mxCell>
        <mxCell id="K-eYaZ-kSqXCWAp16faL-37" value="" style="endArrow=none;html=1;rounded=0;entryX=0;entryY=0.25;entryDx=0;entryDy=0;exitX=1;exitY=0.5;exitDx=0;exitDy=0;" edge="1" parent="1" source="K-eYaZ-kSqXCWAp16faL-32" target="K-eYaZ-kSqXCWAp16faL-5">
          <mxGeometry relative="1" as="geometry">
            <mxPoint x="130" y="609.5" as="sourcePoint" />
            <mxPoint x="290" y="609.5" as="targetPoint" />
          </mxGeometry>
        </mxCell>
        <mxCell id="K-eYaZ-kSqXCWAp16faL-39" value="" style="endArrow=none;html=1;rounded=0;entryX=0;entryY=0.25;entryDx=0;entryDy=0;exitX=0.5;exitY=0;exitDx=0;exitDy=0;" edge="1" parent="1" source="K-eYaZ-kSqXCWAp16faL-33" target="K-eYaZ-kSqXCWAp16faL-5">
          <mxGeometry relative="1" as="geometry">
            <mxPoint x="200" y="639.5" as="sourcePoint" />
            <mxPoint x="360" y="639.5" as="targetPoint" />
          </mxGeometry>
        </mxCell>
        <mxCell id="K-eYaZ-kSqXCWAp16faL-40" value="From_Date" style="ellipse;whiteSpace=wrap;html=1;align=center;" vertex="1" parent="1">
          <mxGeometry x="740" y="470" width="100" height="40" as="geometry" />
        </mxCell>
        <mxCell id="K-eYaZ-kSqXCWAp16faL-41" value="Programme" style="whiteSpace=wrap;html=1;align=center;" vertex="1" parent="1">
          <mxGeometry x="530" y="560" width="100" height="40" as="geometry" />
        </mxCell>
        <mxCell id="K-eYaZ-kSqXCWAp16faL-42" value="ProgrammeID" style="ellipse;whiteSpace=wrap;html=1;align=center;fontStyle=4;" vertex="1" parent="1">
          <mxGeometry x="640" y="450" width="100" height="40" as="geometry" />
        </mxCell>
        <mxCell id="K-eYaZ-kSqXCWAp16faL-43" value="To_Date" style="ellipse;whiteSpace=wrap;html=1;align=center;" vertex="1" parent="1">
          <mxGeometry x="730" y="520" width="100" height="40" as="geometry" />
        </mxCell>
        <mxCell id="K-eYaZ-kSqXCWAp16faL-44" value="&lt;span style=&quot;border-bottom: 1px dotted&quot;&gt;BandID&lt;/span&gt;" style="ellipse;whiteSpace=wrap;html=1;align=center;" vertex="1" parent="1">
          <mxGeometry x="720" y="620" width="100" height="40" as="geometry" />
        </mxCell>
        <mxCell id="K-eYaZ-kSqXCWAp16faL-45" value="&lt;span style=&quot;border-bottom: 1px dotted&quot;&gt;SingerID&lt;/span&gt;" style="ellipse;whiteSpace=wrap;html=1;align=center;" vertex="1" parent="1">
          <mxGeometry x="610" y="640" width="100" height="40" as="geometry" />
        </mxCell>
        <mxCell id="K-eYaZ-kSqXCWAp16faL-46" value="" style="endArrow=none;html=1;rounded=0;exitX=1;exitY=0.25;exitDx=0;exitDy=0;entryX=0.5;entryY=1;entryDx=0;entryDy=0;" edge="1" parent="1" source="K-eYaZ-kSqXCWAp16faL-41" target="K-eYaZ-kSqXCWAp16faL-42">
          <mxGeometry relative="1" as="geometry">
            <mxPoint x="500" y="499" as="sourcePoint" />
            <mxPoint x="660" y="499" as="targetPoint" />
          </mxGeometry>
        </mxCell>
        <mxCell id="K-eYaZ-kSqXCWAp16faL-47" value="" style="endArrow=none;html=1;rounded=0;entryX=0;entryY=0.5;entryDx=0;entryDy=0;exitX=1;exitY=0.25;exitDx=0;exitDy=0;" edge="1" parent="1" source="K-eYaZ-kSqXCWAp16faL-41" target="K-eYaZ-kSqXCWAp16faL-40">
          <mxGeometry relative="1" as="geometry">
            <mxPoint x="570" y="540" as="sourcePoint" />
            <mxPoint x="730" y="540" as="targetPoint" />
          </mxGeometry>
        </mxCell>
        <mxCell id="K-eYaZ-kSqXCWAp16faL-48" value="" style="endArrow=none;html=1;rounded=0;entryX=0;entryY=0.5;entryDx=0;entryDy=0;exitX=1;exitY=0.25;exitDx=0;exitDy=0;" edge="1" parent="1" source="K-eYaZ-kSqXCWAp16faL-41" target="K-eYaZ-kSqXCWAp16faL-43">
          <mxGeometry relative="1" as="geometry">
            <mxPoint x="570" y="540" as="sourcePoint" />
            <mxPoint x="730" y="540" as="targetPoint" />
          </mxGeometry>
        </mxCell>
        <mxCell id="K-eYaZ-kSqXCWAp16faL-49" value="" style="endArrow=none;html=1;rounded=0;exitX=1;exitY=0.25;exitDx=0;exitDy=0;entryX=0;entryY=0.5;entryDx=0;entryDy=0;" edge="1" parent="1" source="K-eYaZ-kSqXCWAp16faL-41" target="K-eYaZ-kSqXCWAp16faL-44">
          <mxGeometry relative="1" as="geometry">
            <mxPoint x="550" y="609.5" as="sourcePoint" />
            <mxPoint x="710" y="609.5" as="targetPoint" />
          </mxGeometry>
        </mxCell>
        <mxCell id="K-eYaZ-kSqXCWAp16faL-50" value="" style="endArrow=none;html=1;rounded=0;exitX=1;exitY=0.25;exitDx=0;exitDy=0;entryX=0.5;entryY=0;entryDx=0;entryDy=0;" edge="1" parent="1" source="K-eYaZ-kSqXCWAp16faL-41" target="K-eYaZ-kSqXCWAp16faL-45">
          <mxGeometry relative="1" as="geometry">
            <mxPoint x="460" y="639.5" as="sourcePoint" />
            <mxPoint x="620" y="639.5" as="targetPoint" />
          </mxGeometry>
        </mxCell>
        <mxCell id="K-eYaZ-kSqXCWAp16faL-53" value="&lt;span style=&quot;border-bottom: 1px dotted&quot;&gt;StageID&lt;/span&gt;" style="ellipse;whiteSpace=wrap;html=1;align=center;" vertex="1" parent="1">
          <mxGeometry x="730" y="570" width="100" height="40" as="geometry" />
        </mxCell>
        <mxCell id="K-eYaZ-kSqXCWAp16faL-54" value="" style="endArrow=none;html=1;rounded=0;entryX=0;entryY=0.5;entryDx=0;entryDy=0;exitX=1;exitY=0.25;exitDx=0;exitDy=0;" edge="1" parent="1" source="K-eYaZ-kSqXCWAp16faL-41" target="K-eYaZ-kSqXCWAp16faL-53">
          <mxGeometry relative="1" as="geometry">
            <mxPoint x="620" y="569.5" as="sourcePoint" />
            <mxPoint x="780" y="569.5" as="targetPoint" />
          </mxGeometry>
        </mxCell>
      </root>
    </mxGraphModel>
  </diagram>
</mxfile>
